<?xml version="1.0" standalone="no"?>
<!DOCTYPE svg PUBLIC "-//W3C//DTD SVG 20010904//EN"
 "http://www.w3.org/TR/2001/REC-SVG-20010904/DTD/svg10.dtd">
<svg version="1.0" xmlns="http://www.w3.org/2000/svg"
 width="1640.000000pt" height="924.000000pt" viewBox="0 0 1640.000000 924.000000"
 preserveAspectRatio="xMidYMid meet">

<g transform="translate(0.000000,924.000000) scale(0.100000,-0.100000)"
fill="#000000" stroke="none">
<path d="M7725 8304 c-219 -17 -493 -63 -695 -115 -279 -72 -635 -225 -872
-376 -221 -141 -493 -384 -652 -583 -384 -482 -610 -1094 -666 -1804 -13 -166
-13 -554 0 -766 61 -971 318 -1562 1104 -2535 671 -830 1122 -1263 1536 -1474
383 -195 696 -199 1075 -15 381 185 779 546 1346 1224 914 1091 1197 1644
1305 2555 25 213 31 908 10 1112 -86 817 -377 1456 -888 1949 -242 233 -499
405 -825 550 -293 129 -599 210 -993 260 -120 15 -663 27 -785 18z m-1454
-3773 c369 -127 900 -673 1232 -1267 158 -283 235 -520 225 -693 -8 -139 -62
-210 -187 -248 -78 -24 -306 -24 -421 0 -479 100 -1012 484 -1278 919 -153
250 -219 475 -209 708 9 224 63 369 177 481 70 69 132 101 230 119 63 12 166
4 231 -19z m3816 4 c119 -36 228 -142 286 -280 78 -187 80 -463 5 -690 -33
-101 -144 -315 -215 -414 -80 -112 -275 -317 -388 -408 -266 -215 -570 -366
-841 -419 -122 -24 -338 -24 -417 -1 -61 19 -128 70 -152 118 -28 53 -39 164
-26 252 52 345 384 913 777 1327 54 57 113 119 129 136 57 61 210 186 305 249
213 142 369 180 537 130z m-1407 -2941 c0 -15 -65 -96 -102 -129 -58 -50 -186
-111 -283 -135 -154 -39 -386 -37 -551 6 -140 35 -287 134 -343 230 l-20 34
649 0 c358 0 650 -3 650 -6z"/>
</g>
</svg>
