<?xml version="1.0" standalone="no"?>
<!DOCTYPE svg PUBLIC "-//W3C//DTD SVG 20010904//EN"
 "http://www.w3.org/TR/2001/REC-SVG-20010904/DTD/svg10.dtd">
<svg version="1.0" xmlns="http://www.w3.org/2000/svg"
 width="1640.000000pt" height="924.000000pt" viewBox="0 0 1640.000000 924.000000"
 preserveAspectRatio="xMidYMid meet">

<g transform="translate(0.000000,924.000000) scale(0.100000,-0.100000)"
fill="#6366f1" stroke="none">
<path d="M7730 8293 c-298 -28 -480 -57 -683 -109 -431 -111 -805 -293 -1127
-550 -127 -101 -376 -355 -464 -474 -194 -261 -379 -640 -474 -972 -125 -437
-163 -870 -132 -1515 26 -531 130 -976 325 -1389 194 -411 582 -951 1155
-1604 261 -298 375 -420 520 -555 568 -531 1018 -704 1487 -570 323 93 773
423 1156 848 972 1081 1438 1795 1607 2467 108 430 155 1015 120 1481 -71 927
-320 1516 -893 2116 -111 115 -204 191 -367 299 -571 376 -1179 539 -1990 532
-113 0 -221 -3 -240 -5z m-1453 -3758 c250 -79 570 -355 925 -799 166 -206
406 -628 473 -830 53 -158 69 -325 42 -429 -15 -57 -73 -122 -135 -149 -69
-31 -267 -42 -397 -23 -208 31 -366 91 -615 234 -157 89 -293 194 -431 331
-293 291 -455 572 -504 874 -20 122 -19 197 5 346 16 98 28 141 56 196 65 130
174 230 279 255 28 6 59 15 70 20 32 14 147 1 232 -26z m3806 6 c166 -58 282
-193 332 -386 23 -85 31 -315 15 -412 -27 -168 -113 -374 -228 -548 -137 -206
-392 -452 -627 -604 -409 -266 -790 -358 -1093 -263 -115 35 -182 190 -153
355 69 398 403 953 846 1406 268 274 459 407 670 467 64 18 163 12 238 -15z
m-1420 -2936 c28 -21 15 -45 -67 -123 -127 -120 -270 -172 -515 -188 -175 -11
-389 32 -508 102 -90 53 -209 182 -187 204 15 15 75 17 674 18 486 1 588 -1
603 -13z"/>
</g>
</svg>
